<?xml version="1.0" encoding="utf-8"?>
<!-- Generator: Adobe Illustrator 19.2.0, SVG Export Plug-In . SVG Version: 6.00 Build 0)  -->
<svg version="1.1" id="Layer_1" xmlns="http://www.w3.org/2000/svg" xmlns:xlink="http://www.w3.org/1999/xlink" x="0px" y="0px"
	 viewBox="0 0 291.3 291.3" style="enable-background:new 0 0 291.3 291.3;" xml:space="preserve">
<style type="text/css">
	.st0{fill:#26A6D1;}
	.st1{fill:#FFFFFF;}
</style>
<g>
	<path class="st0" d="M145.7,0c80.4,0,145.7,65.2,145.7,145.7c0,80.4-65.2,145.7-145.7,145.7S0,226.1,0,145.7C0,65.2,65.2,0,145.7,0
		z"/>
	<path class="st1" d="M207,114c-4.4,1.9-9.2,3.2-14.2,3.7c5.1-2.9,9-7.6,10.9-13.1c-4.8,2.7-10.1,4.7-15.7,5.8
		c-4.5-4.6-10.9-7.5-18-7.5c-13.6,0-24.7,10.6-24.7,23.7c0,1.9,0.2,3.7,0.6,5.4c-20.5-1-38.7-10.4-50.9-24.8
		c-2.1,3.5-3.3,7.6-3.3,11.9c0,8.2,4.4,15.5,11,19.7c-4.1-0.1-7.8-1.2-11.2-3v0.3c0,11.5,8.5,21.1,19.8,23.3
		c-2.1,0.5-4.2,0.8-6.5,0.8c-1.6,0-3.1-0.1-4.6-0.4c3.1,9.4,12.3,16.3,23.1,16.5c-8.4,6.4-19.1,10.2-30.7,10.2c-2,0-4-0.1-5.9-0.3
		c10.9,6.7,23.9,10.7,37.8,10.7c45.4,0,70.2-36.2,70.2-67.5l-0.1-3.1C199.5,123,203.7,118.8,207,114z"/>
</g>
</svg>
