<?xml version="1.0" encoding="utf-8"?>
<!-- Generator: Adobe Illustrator 19.2.0, SVG Export Plug-In . SVG Version: 6.00 Build 0)  -->
<svg version="1.1" id="Capa_1" xmlns="http://www.w3.org/2000/svg" xmlns:xlink="http://www.w3.org/1999/xlink" x="0px" y="0px"
	 viewBox="0 0 511.7 512" style="enable-background:new 0 0 511.7 512;" xml:space="preserve">
<style type="text/css">
	.st0{fill:#FF8320;}
	.st1{fill:#FFFFFF;}
</style>
<g>
	<g>
		<path class="st0" d="M445.9,212c24.4-0.1,43.9-19.7,43.8-44.2c-0.1-24.5-19.6-44-44.1-44c-24.7,0-44.4,19.8-44.2,44.6
			C401.7,192.7,421.4,212.1,445.9,212z"/>
		<g>
			<circle class="st0" cx="255.9" cy="256" r="255.9"/>
		</g>
		<circle class="st1" cx="253.9" cy="253.1" r="174.6"/>
		<path class="st0" d="M256,62.5c-101.1,0-183,83.3-183,185.9s81.9,185.9,183,185.9s183-83.3,183-185.9S357.1,62.5,256,62.5z
			 M256.3,119c35.6,0.1,64.3,29.7,64.1,66.3c-0.2,35.8-29.3,64.8-64.9,64.6c-35.2-0.1-64.1-29.8-63.9-65.6
			C191.8,148.1,220.7,118.9,256.3,119z M328.5,275.7c-7.9,8.2-17.4,14.2-27.9,18.3c-10,3.9-20.9,5.9-31.7,7.2
			c1.6,1.8,2.4,2.7,3.4,3.7c14.7,15,29.4,29.9,44,44.9c5,5.1,6,11.5,3.3,17.4c-3,6.5-9.7,10.8-16.3,10.3c-4.2-0.3-7.4-2.4-10.3-5.4
			c-11.1-11.3-22.3-22.4-33.2-34c-3.2-3.4-4.7-2.7-7.5,0.2c-11.1,11.6-22.4,23.1-33.8,34.5c-5.1,5.1-11.2,6-17.1,3.1
			c-6.3-3.1-10.3-9.6-10-16.2c0.2-4.4,2.4-7.8,5.4-10.9c14.5-14.7,29-29.5,43.5-44.2c1-1,1.9-2,3.3-3.5c-19.7-2.1-37.6-7-52.8-19.1
			c-1.9-1.5-3.8-3-5.6-4.6c-6.7-6.5-7.3-14-2.1-21.6c4.5-6.6,12.1-8.3,20-4.6c1.5,0.7,3,1.6,4.4,2.6c28.4,19.8,67.4,20.4,96,0.9
			c2.8-2.2,5.8-4,9.3-4.9c6.8-1.8,13.2,0.8,16.8,6.8C333.6,263.6,333.6,270.4,328.5,275.7z"/>
		<circle class="st0" cx="256" cy="187.2" r="34"/>
	</g>
</g>
</svg>
