<?xml version="1.0" encoding="utf-8"?>
<!-- Generator: Adobe Illustrator 19.2.0, SVG Export Plug-In . SVG Version: 6.00 Build 0)  -->
<svg version="1.1" id="Layer_1" xmlns="http://www.w3.org/2000/svg" xmlns:xlink="http://www.w3.org/1999/xlink" x="0px" y="0px"
	 viewBox="0 0 291.3 291.3" style="enable-background:new 0 0 291.3 291.3;" xml:space="preserve">
<style type="text/css">
	.st0{fill:#C4302B;}
	.st1{fill:#FFFFFF;}
</style>
<g>
	<path class="st0" d="M145.7,0c80.4,0,145.7,65.2,145.7,145.7s-65.2,145.7-145.7,145.7S0,226.1,0,145.7S65.2,0,145.7,0z"/>
	<path class="st1" d="M142.4,122.3c3.6,0,6.3-1.1,8.4-2.8c2-1.6,3-3.8,3-6.7V95.8c0-2.5-1-4.6-3.1-6.2c-2.1-1.6-4.7-2.4-8-2.4
		c-3.5,0-6.4,0.8-8.5,2.3c-2.1,1.5-3.2,3.6-3.2,6.1v17.2c0,2.8,1,5.1,3.1,6.7C136.2,121.2,138.9,122.3,142.4,122.3z M138.6,96.4
		c0-0.6,0.3-1.2,1-1.6c0.7-0.4,1.5-0.6,2.6-0.6c1.2,0,2.1,0.2,2.8,0.6c0.7,0.4,1.1,0.9,1.1,1.6v16.3c0,0.8-0.4,1.4-1.1,1.9
		c-0.7,0.5-1.6,0.7-2.8,0.7c-1.2,0-2.1-0.2-2.7-0.7c-0.6-0.4-0.9-1.1-0.9-1.9V96.4z M165.9,122.3c1.3,0,2.5-0.7,3.8-1.4
		c1.3-0.7,2.6-1.8,3.8-3.2v3.8h6.6V87.1h-6.6v26.1c-0.6,0.7-1.3,1.4-2,1.8c-0.8,0.5-1.4,0.7-1.9,0.7c-0.6,0-1.1-0.2-1.3-0.6
		c-0.3-0.4-0.4-0.9-0.4-1.8V87.1h-6.6v28.7c0,2,0.4,3.6,1.2,4.6C163.2,121.4,164.3,122.3,165.9,122.3z M185.2,136.5H105
		c-12.8,0-23.1,10-23.1,22.3v18.8c0,12.3,10.3,22.3,23.1,22.3h80.2c12.8,0,23.1-10,23.1-22.3v-18.8
		C208.3,146.5,197.9,136.5,185.2,136.5z M116.9,155.6h-7.1v29.5h-6.9v-29.5h-7.1v-5h21.1C116.9,150.6,116.9,155.6,116.9,155.6z
		 M138.1,185.5h-7.4v-3.1c-1.4,1.1-2.8,2-4.3,2.6c-1.5,0.6-2.9,0.9-4.3,0.9c-1.7,0-3-0.4-3.9-1.3c-0.9-0.8-1.3-2.1-1.3-3.7v-23.3
		h7.4V179c0,0.7,0.2,1.1,0.4,1.4c0.3,0.3,0.8,0.4,1.5,0.4c0.5,0,1.2-0.2,2.1-0.6c0.8-0.4,1.6-0.9,2.3-1.5v-21.2h7.4
		C138.1,157.7,138.1,185.5,138.1,185.5z M166.1,180.2c0,1.8-0.6,3.2-1.7,4.2c-1.1,1-2.8,1.5-5,1.5c-1.4,0-2.7-0.2-3.8-0.6
		c-1.1-0.4-2.2-1-3.1-1.8v2H145v-35h7.4v11.3c1-0.8,2-1.4,3.1-1.8c1.1-0.4,2.2-0.6,3.4-0.6c2.3,0,4.1,0.5,5.3,1.6
		c1.2,1.1,1.8,2.7,1.8,4.8C166.1,165.9,166.1,180.2,166.1,180.2z M194.2,172.4h-13.6v5c0,1.4,0.2,2.4,0.7,2.9
		c0.5,0.5,1.3,0.8,2.4,0.8c1.2,0,2-0.2,2.5-0.7c0.5-0.5,0.7-1.5,0.7-3.1v-1.2h7.3v1.4c0,2.7-0.9,4.8-2.7,6.2c-1.8,1.4-4.5,2.1-8,2.1
		c-3.2,0-5.7-0.7-7.5-2.2c-1.8-1.5-2.8-3.5-2.8-6.1v-12c0-2.3,1-4.2,3-5.7c2-1.5,4.6-2.2,7.8-2.2c3.3,0,5.8,0.7,7.5,2
		c1.7,1.3,2.6,3.3,2.6,5.8C194.2,165.5,194.2,172.4,194.2,172.4z M112.9,122.4h8.4v-20.5l9.8-28.9h-8.5l-5.2,19.8h-0.5L111.4,73
		h-8.5l10,29.9C112.9,102.8,112.9,122.4,112.9,122.4z M155.5,163.5l-1.6,0.3l-1.5,0.8v16.1c0.6,0.4,1.2,0.7,1.7,0.9l1.8,0.3
		c0.9,0,1.6-0.2,2-0.6c0.4-0.4,0.6-1,0.6-1.8v-13.3c0-0.9-0.2-1.5-0.8-2C157.2,163.8,156.5,163.5,155.5,163.5z"/>
	<path class="st1" d="M196.2,170c-1.5,0-2.5,0.3-3.2,0.9c-0.6,0.6-0.9,1.6-0.9,3.1v3.5h8.2v-3.5c0-1.4-0.3-2.5-1-3.1
		C198.7,170.3,197.6,170,196.2,170z"/>
</g>
</svg>
